<svg xmlns="http://www.w3.org/2000/svg" viewBox="0 0 24 24" fill="none" stroke="#6366f1" stroke-width="2" stroke-linecap="round" stroke-linejoin="round">
  <path d="M12 2a5 5 0 0 1 5 5c0 .91-.26 1.76-.7 2.5A5 5 0 0 1 19 14a5 5 0 0 1-3 4.58V22h-4v-3.42A5 5 0 0 1 9 14a5 5 0 0 1 2.7-4.5A4.98 4.98 0 0 1 11 7a5 5 0 0 1 1-3"/>
  <path d="M12 2a5 5 0 0 0-5 5c0 .91.26 1.76.7 2.5A5 5 0 0 0 5 14a5 5 0 0 0 3 4.58"/>
  <circle cx="9" cy="10" r="1"/>
  <circle cx="15" cy="10" r="1"/>
  <path d="M9.5 15a3.5 3.5 0 0 0 5 0"/>
</svg>
